<svg xmlns="http://www.w3.org/2000/svg" fill="none" viewBox="0 0 400 400"><g transform="matrix(2,0,0,2,0,0)"><path fill="#4395fd" d="M149.272 75.6C140.685 72.219 119.464 70.281 110.762 69.711C107.799 74.574 101.852 86.866 104.873 89.089L106.203 84.489C120.661 84.432 131.87 85.689 148.132 89.03C149.865 84.7724 150.262 80.0887 149.272 75.6V75.6Z"></path><path fill="#4395fd" d="M102.707 69.347C101.169 69.309 100.598 68.758 100.598 67.808H95.507V67.827C95.1381 68.3177 94.6537 68.7097 94.0968 68.9682C93.54 69.2268 92.9279 69.3438 92.315 69.309L87.471 69.195C87.071 72.888 86.436 79.634 86.92 83.577L99.896 83.862C101.591 78.7805 103.962 73.9499 106.944 69.5C105.348 69.423 103.9 69.366 102.707 69.347Z"></path><path fill="#4395fd" d="M83.291 69.233C71.541 69.4848 59.8343 70.745 48.3 73C47.0163 77.3148 47.3542 81.95 49.25 86.033C61.067 84.056 71.763 84.284 82.421 84.418C82.2276 79.3402 82.5189 74.2555 83.291 69.233V69.233Z"></path><path fill="#4395fd" d="M109.514 180.338C114.229 180.664 114.814 173.543 110.114 173.058L65.05 166.846C64.5711 166.744 64.0766 166.739 63.5956 166.831C63.1146 166.922 62.6568 167.109 62.2491 167.381C61.8414 167.652 61.492 168.002 61.2215 168.41C60.9509 168.818 60.7647 169.276 60.6736 169.757C60.5826 170.238 60.5887 170.733 60.6914 171.212C60.7942 171.69 60.9916 172.144 61.272 172.545C61.5524 172.947 61.9103 173.288 62.3245 173.549C62.7387 173.81 63.2009 173.986 63.684 174.066C63.1809 174.038 62.6772 174.112 62.2036 174.284C61.7299 174.456 61.2961 174.722 60.9283 175.067C60.5605 175.411 60.2663 175.827 60.0636 176.288C59.8609 176.749 59.7539 177.247 59.749 177.751C59.7496 178.648 60.079 179.513 60.6748 180.183C61.2706 180.854 62.0915 181.282 62.982 181.388C62.4961 181.337 62.0048 181.383 61.537 181.524C61.0691 181.665 60.6341 181.898 60.2574 182.209C59.8807 182.52 59.5698 182.904 59.343 183.336C59.1162 183.769 58.978 184.243 58.9365 184.73C58.895 185.217 58.951 185.707 59.1013 186.172C59.2516 186.637 59.4931 187.067 59.8117 187.437C60.1303 187.808 60.5196 188.111 60.9569 188.329C61.3941 188.547 61.8704 188.676 62.358 188.708L107.378 194.925C112.51 195.497 113.159 188.542 108.778 187.69C113.325 187.794 113.864 181.061 109.514 180.338Z"></path><g><path fill="#000000" d="M99.06 64.73L96.267 66.516C96.5315 65.9435 96.7353 65.3449 96.875 64.73C97.6027 64.7723 98.3323 64.7723 99.06 64.73V64.73Z"></path><path fill="#000000" d="M126.759 58.366C132.782 44.706 110.61 56.166 110.61 56.166C114.144 49.479 104.303 50.999 100.047 54.228C104.379 51.284 105.139 55.558 103.942 57.99C103.733 58.503 103.98 58.75 105.025 58.484C107.21 57.933 107.269 61.384 103.543 61.448C103.236 61.591 102.969 61.8061 102.764 62.075C101.624 64.563 100.579 66.558 100.579 67.831C100.579 68.8 101.149 69.351 102.688 69.37C115.259 69.7583 127.786 71.0473 140.172 73.227C141.94 72.5932 143.55 71.5864 144.894 70.2751C146.238 68.9637 147.284 67.3785 147.961 65.627C155.408 47.86 126.759 58.366 126.759 58.366Z"></path><path fill="#000000" d="M84.355 143.668C82.1287 146.292 79.1408 148.158 75.806 149.007C77.155 151.438 77.82 155.694 78.406 158.468C79.4034 163.841 80.9634 169.094 83.06 174.141C87.24 164.741 87.734 156.682 89.102 151.096C87.7342 148.489 86.1461 146.004 84.355 143.668V143.668Z"></path><path fill="#000000" d="M145.092 110.668C142.301 112.152 139.644 113.874 137.151 115.817C139.565 118.19 141.308 121.159 142.205 124.423C147.955 121.548 157.713 121.562 168.061 117.09C158.714 112.815 150.659 112.112 145.092 110.668Z"></path><path fill="#000000" d="M53.35 74.572C53.35 74.8239 53.2499 75.0656 53.0718 75.2437C52.8936 75.4219 52.652 75.522 52.4 75.522C52.148 75.522 51.9064 75.4219 51.7282 75.2437C51.5501 75.0656 51.45 74.8239 51.45 74.572C51.45 74.32 51.5501 74.0784 51.7282 73.9002C51.9064 73.7221 52.148 73.622 52.4 73.622C52.652 73.622 52.8936 73.7221 53.0718 73.9002C53.2499 74.0784 53.35 74.32 53.35 74.572Z"></path><path fill="#000000" d="M66.345 81.183C66.345 81.435 66.2449 81.6766 66.0667 81.8548C65.8886 82.0329 65.647 82.133 65.395 82.133C65.143 82.133 64.9014 82.0329 64.7233 81.8548C64.5451 81.6766 64.445 81.435 64.445 81.183C64.445 80.931 64.5451 80.6894 64.7233 80.5112C64.9014 80.3331 65.143 80.233 65.395 80.233C65.647 80.233 65.8886 80.3331 66.0667 80.5112C66.2449 80.6894 66.345 80.931 66.345 81.183Z"></path><path fill="#000000" d="M80.555 72.368C80.555 72.62 80.4549 72.8616 80.2767 73.0397C80.0986 73.2179 79.857 73.318 79.605 73.318C79.353 73.318 79.1114 73.2179 78.9333 73.0397C78.7551 72.8616 78.655 72.62 78.655 72.368C78.655 72.116 78.7551 71.8744 78.9333 71.6963C79.1114 71.5181 79.353 71.418 79.605 71.418C79.857 71.418 80.0986 71.5181 80.2767 71.6963C80.4549 71.8744 80.555 72.116 80.555 72.368Z"></path><path fill="#000000" d="M116.1 73.318C116.1 73.57 116 73.8116 115.822 73.9898C115.644 74.1679 115.402 74.268 115.15 74.268C114.898 74.268 114.656 74.1679 114.478 73.9898C114.3 73.8116 114.2 73.57 114.2 73.318C114.2 73.066 114.3 72.8244 114.478 72.6462C114.656 72.4681 114.898 72.368 115.15 72.368C115.402 72.368 115.644 72.4681 115.822 72.6462C116 72.8244 116.1 73.066 116.1 73.318Z"></path><path fill="#000000" d="M94.6 80.233C94.6 80.4849 94.4999 80.7266 94.3218 80.9047C94.1436 81.0829 93.902 81.183 93.65 81.183C93.398 81.183 93.1564 81.0829 92.9782 80.9047C92.8001 80.7266 92.7 80.4849 92.7 80.233C92.7 79.981 92.8001 79.7394 92.9782 79.5612C93.1564 79.3831 93.398 79.283 93.65 79.283C93.902 79.283 94.1436 79.3831 94.3218 79.5612C94.4999 79.7394 94.6 79.981 94.6 80.233Z"></path><path fill="#000000" d="M130.141 82.874C130.141 83.126 130.041 83.3676 129.863 83.5458C129.685 83.7239 129.443 83.824 129.191 83.824C128.939 83.824 128.697 83.7239 128.519 83.5458C128.341 83.3676 128.241 83.126 128.241 82.874C128.241 82.6221 128.341 82.3804 128.519 82.2023C128.697 82.0241 128.939 81.924 129.191 81.924C129.443 81.924 129.685 82.0241 129.863 82.2023C130.041 82.3804 130.141 82.6221 130.141 82.874V82.874Z"></path><path fill="#000000" d="M146.213 77.649C146.213 77.901 146.113 78.1426 145.935 78.3207C145.757 78.4989 145.515 78.599 145.263 78.599C145.011 78.599 144.769 78.4989 144.591 78.3207C144.413 78.1426 144.313 77.901 144.313 77.649C144.313 77.397 144.413 77.1554 144.591 76.9772C144.769 76.7991 145.011 76.699 145.263 76.699C145.515 76.699 145.757 76.7991 145.935 76.9772C146.113 77.1554 146.213 77.397 146.213 77.649V77.649Z"></path><path fill="#000000" d="M119.236 122.428L110.706 129.514L107.837 127.007C111.794 125.906 115.617 124.37 119.236 122.428V122.428Z"></path><path fill="#000000" d="M83.386 120.167C83.652 121.288 83.975 122.428 84.355 123.567C89.5347 122.674 94.5914 121.174 99.421 119.1C94.5 121.076 88.6 120.992 83.386 120.167Z"></path></g><g><path stroke="#000000" stroke-linecap="round" stroke-linejoin="round" stroke-width=".75" d="M109.3 180.3C114.08 180.9 114.95 173.524 110.1 173.023L65.017 166.868C64.5326 166.764 64.0322 166.76 63.546 166.855C63.0598 166.95 62.598 167.142 62.1884 167.421C61.7788 167.7 61.43 168.058 61.1631 168.476C60.8961 168.893 60.7166 169.36 60.6354 169.849C60.5541 170.338 60.5729 170.838 60.6904 171.319C60.808 171.8 61.022 172.252 61.3194 172.649C61.6168 173.045 61.9915 173.377 62.4208 173.624C62.8501 173.871 63.3251 174.029 63.817 174.087C63.3333 174.029 62.8429 174.067 62.3741 174.2C61.9054 174.332 61.4676 174.557 61.0861 174.86C60.7045 175.163 60.3869 175.538 60.1516 175.965C59.9162 176.391 59.7678 176.86 59.7149 177.345C59.662 177.829 59.7057 178.319 59.8434 178.786C59.9811 179.253 60.2102 179.689 60.5173 180.067C60.8244 180.445 61.2034 180.759 61.6325 180.989C62.0616 181.22 62.5322 181.363 63.017 181.411C62.5367 181.355 62.0499 181.394 61.5848 181.526C61.1197 181.659 60.6854 181.882 60.307 182.183C59.9286 182.485 59.6135 182.858 59.38 183.281C59.1464 183.705 58.999 184.17 58.9462 184.651C58.8934 185.132 58.9363 185.618 59.0724 186.082C59.2085 186.546 59.4351 186.979 59.7391 187.355C60.0432 187.731 60.4187 188.043 60.8439 188.274C61.2692 188.504 61.7359 188.648 62.217 188.697L107.699 194.985C112.373 195.457 113.274 188.247 108.487 187.642C113.214 188.1 114.075 180.849 109.3 180.3Z"></path><path stroke="#000000" stroke-linecap="round" stroke-linejoin="round" stroke-width=".75" d="M143.933 55.421C141.022 46.6685 135.716 38.9072 128.617 33.0175C121.518 27.1279 112.91 23.3457 103.771 22.1C77.706 18.524 54.365 36.274 51.564 61.729C51.1823 65.2602 51.2078 68.8236 51.64 72.349"></path><path stroke="#000000" stroke-linecap="round" stroke-linejoin="round" stroke-width=".75" d="M145.947 74.534C146.155 72.593 146.237 70.6406 146.193 68.689"></path><path stroke="#000000" stroke-linecap="round" stroke-linejoin="round" stroke-width=".75" d="M142.4 87.9C142.145 88.4978 141.84 89.0731 141.488 89.62C133.168 103.32 128.36 111.32 124.978 119.22"></path><path stroke="#000000" stroke-linecap="round" stroke-linejoin="round" stroke-width=".75" d="M87.744 158.1L115.189 161.854C115.968 157.637 117.789 144.927 118.476 141.602"></path><path stroke="#000000" stroke-linecap="round" stroke-linejoin="round" stroke-width=".75" d="M63.7 137.057C63.662 139.673 62.47 151.467 62.371 154.611L78.044 156.682"></path><path stroke="#000000" stroke-linecap="round" stroke-linejoin="round" stroke-width=".75" d="M55.212 85.192C57.301 91.537 58.935 96.533 60.17 100.941"></path><path stroke="#000000" stroke-linecap="round" stroke-linejoin="round" stroke-width=".75" d="M94.614 59.658L83.405 58.119C81.9789 57.8943 80.5222 57.9601 79.1221 58.3125C77.7221 58.6648 76.4078 59.2964 75.258 60.1694C74.1081 61.0424 73.1466 62.1387 72.431 63.3926C71.7155 64.6465 71.2607 66.032 71.094 67.466C71.0134 68.2619 71.0184 69.0642 71.109 69.859"></path><path stroke="#000000" stroke-linecap="round" stroke-linejoin="round" stroke-width=".75" d="M88.782 158.24L91.365 135.993"></path><path stroke="#000000" stroke-linecap="round" stroke-linejoin="round" stroke-width=".75" d="M83.291 69.214C83.291 69.214 80.691 84.375 84.203 95.907C83.6494 97.2889 83.2542 98.7291 83.025 100.2"></path><path stroke="#000000" stroke-linecap="round" stroke-linejoin="round" stroke-width=".75" d="M82.379 84.413C71.721 84.28 61.044 84.052 49.208 86.027C47.3226 81.9427 46.9916 77.3109 48.277 73C62.7627 70.1527 77.5198 68.9228 92.277 69.333C94.215 69.414 95.486 68.192 96.267 66.521C96.5311 65.9484 96.7348 65.3498 96.875 64.735C94.175 64.507 90.475 63.028 98.148 55.787C98.7431 55.2227 99.3781 54.7021 100.048 54.229"></path><path stroke="#000000" stroke-linecap="round" stroke-linejoin="round" stroke-width=".75" d="M149.272 75.616C140.73 72.286 119.951 70.316 110.743 69.727C107.78 74.591 101.833 86.883 104.854 89.105L106.203 84.488C120.661 84.431 131.87 85.688 148.132 89.029C149.888 84.7829 150.286 80.0975 149.272 75.616Z"></path><path stroke="#000000" stroke-linecap="round" stroke-linejoin="round" stroke-width=".75" d="M103.982 57.9C105.121 55.455 104.329 51.311 100.047 54.222C104.303 50.993 114.147 49.473 110.61 56.16C110.61 56.16 132.781 44.704 126.759 58.36C157.959 46.925 150.83 69.324 140.172 73.217C127.787 71.0244 115.26 69.729 102.688 69.341C101.149 69.32 100.579 68.771 100.579 67.802C100.579 66.529 101.655 64.548 102.764 62.046C102.97 61.7776 103.237 61.5625 103.543 61.419C107.269 61.352 107.209 57.902 105.025 58.455C103.994 58.722 103.77 58.358 103.982 57.9Z"></path><path stroke="#000000" stroke-linecap="round" stroke-linejoin="round" stroke-width=".75" d="M158.106 79.948C159.664 80.4957 161.192 81.1235 162.685 81.829C171.585 86.121 165.705 85.116 163.16 84.129"></path><path stroke="#000000" stroke-linecap="round" stroke-linejoin="round" stroke-width=".75" d="M161.906 88.231C162.979 88.9477 163.983 89.7618 164.906 90.663C167.091 92.848 165.857 93.151 163.748 92.107C162.019 91.251 159.968 90.413 157.801 89.599C154.905 88.4068 151.863 87.609 148.755 87.227"></path><path stroke="#000000" stroke-linecap="round" stroke-linejoin="round" stroke-width=".75" d="M162.02 89.732C161.973 87.1026 161.028 84.5685 159.341 82.551"></path><path stroke="#000000" stroke-linecap="round" stroke-linejoin="round" stroke-width=".75" d="M163.312 89.257C164.167 89.694 165.249 90.189 166.37 90.72C168.421 91.691 169.295 91.386 167.339 89.62C165.492 87.9554 163.396 86.5902 161.127 85.574"></path><path stroke="#000000" stroke-linecap="round" stroke-linejoin="round" stroke-width=".75" d="M164.414 87.357C171.842 91.214 172.995 90.064 166.883 86.157C164.494 84.7129 161.968 83.5103 159.341 82.567"></path><path stroke="#000000" stroke-linecap="round" stroke-linejoin="round" stroke-width=".75" d="M152.616 83.824C153.619 84.0531 154.671 83.9172 155.583 83.4407C156.495 82.9642 157.208 82.1783 157.593 81.224C158.311 79.835 157.783 79.172 158.581 78.203C159.816 76.703 159.574 75.972 157.802 76.74C156.646 77.24 153.945 78.602 151.875 77.994C151.007 77.752 150.135 77.519 149.601 77.383"></path><path stroke="#000000" stroke-linecap="round" stroke-linejoin="round" stroke-width=".75" d="M39.331 76.771C37.722 77.2498 36.1423 77.8221 34.6 78.485C25.537 82.418 31.446 81.639 34.03 80.765"></path><path stroke="#000000" stroke-linecap="round" stroke-linejoin="round" stroke-width=".75" d="M35.093 84.907C33.992 85.5812 32.9565 86.3569 32 87.224C29.738 89.333 30.935 89.674 33.083 88.724C34.849 87.944 36.941 87.21 39.124 86.482C45.624 84.315 48.624 84.469 48.624 84.469"></path><path stroke="#000000" stroke-linecap="round" stroke-linejoin="round" stroke-width=".75" d="M34.922 86.407C35.0813 83.781 36.1318 81.288 37.9 79.34"></path><path stroke="#000000" stroke-linecap="round" stroke-linejoin="round" stroke-width=".75" d="M33.668 85.875C32.794 86.275 31.692 86.73 30.552 87.205C28.462 88.078 27.605 87.754 29.621 86.065C31.5273 84.4698 33.6822 83.198 36 82.3"></path><path stroke="#000000" stroke-linecap="round" stroke-linejoin="round" stroke-width=".75" d="M32.623 83.919C25.023 87.452 23.936 86.229 30.21 82.608C32.6609 81.2712 35.2365 80.1766 37.9 79.34"></path><path stroke="#000000" stroke-linecap="round" stroke-linejoin="round" stroke-width=".75" d="M47.821 74.914C45.713 75.426 40.832 74.15 39.709 73.603C37.983 72.761 37.698 73.467 38.873 75.027C39.616 76.014 39.104 76.584 39.519 77.801C39.94 79.035 41.019 80.936 43.509 80.461"></path><path stroke="#000000" stroke-linecap="round" stroke-linejoin="round" stroke-width=".75" d="M84.355 143.649L85.476 145.169"></path><path stroke="#000000" stroke-linecap="round" stroke-linejoin="round" stroke-width=".75" d="M85.476 145.169C86.8365 147.048 88.0498 149.03 89.105 151.096C87.737 156.682 87.243 164.737 83.063 174.141C80.9668 169.094 79.4069 163.841 78.409 158.468C77.744 155.368 77.25 151.837 75.809 149.026"></path><path stroke="#000000" stroke-linecap="round" stroke-linejoin="round" stroke-width=".75" d="M137.151 115.836C139.647 113.897 142.303 112.174 145.092 110.687C150.659 112.112 158.714 112.815 168.061 117.087C162.996 119.133 157.73 120.642 152.35 121.587C148.084 122.453 145.85 122.599 142.195 124.422"></path><path stroke="#000000" stroke-linecap="round" stroke-linejoin="round" stroke-width=".75" d="M49.36 143.269L36.973 123.416"></path><path stroke="#000000" stroke-linecap="round" stroke-linejoin="round" stroke-width=".75" d="M35.548 129.514L36.973 123.416L43.072 124.841"></path><path stroke="#000000" stroke-linecap="round" stroke-linejoin="round" stroke-width=".75" d="M179.137 71.133C179.137 71.738 178.958 72.3294 178.621 72.8325C178.285 73.3355 177.808 73.7276 177.249 73.9592C176.69 74.1907 176.075 74.2513 175.481 74.1332C174.888 74.0152 174.343 73.7239 173.915 73.2961C173.487 72.8682 173.196 72.3232 173.078 71.7298C172.96 71.1364 173.02 70.5213 173.252 69.9624C173.483 69.4034 173.875 68.9257 174.379 68.5895C174.882 68.2534 175.473 68.074 176.078 68.074C176.48 68.0737 176.878 68.1527 177.249 68.3063C177.62 68.46 177.958 68.6853 178.242 68.9694C178.526 69.2535 178.751 69.5908 178.905 69.9621C179.058 70.3333 179.137 70.7312 179.137 71.133Z"></path><path stroke="#000000" stroke-linecap="round" stroke-linejoin="round" stroke-width=".75" d="M131.338 180.886C131.338 181.284 131.22 181.674 130.999 182.005C130.777 182.336 130.463 182.594 130.095 182.747C129.727 182.899 129.322 182.939 128.931 182.861C128.54 182.784 128.182 182.592 127.9 182.31C127.618 182.028 127.426 181.67 127.349 181.279C127.271 180.888 127.311 180.483 127.463 180.115C127.616 179.747 127.874 179.433 128.205 179.211C128.536 178.99 128.926 178.872 129.324 178.872C129.589 178.87 129.852 178.921 130.097 179.022C130.342 179.122 130.565 179.27 130.752 179.458C130.94 179.645 131.088 179.868 131.188 180.113C131.289 180.358 131.34 180.621 131.338 180.886Z"></path><path stroke="#000000" stroke-linecap="round" stroke-linejoin="round" stroke-width=".75" d="M46.681 32.585L53.502 36.594"></path><path stroke="#000000" stroke-linecap="round" stroke-linejoin="round" stroke-width=".75" d="M81.771 5L84.146 12.485"></path><path stroke="#000000" stroke-linecap="round" stroke-linejoin="round" stroke-width=".75" d="M125.163 14.879L128.944 8.021"></path><path stroke="#000000" stroke-linecap="round" stroke-linejoin="round" stroke-width=".75" d="M154.382 42.351L161.488 38.912"></path><path stroke="#000000" stroke-linecap="round" stroke-linejoin="round" stroke-width=".75" d="M24.928 49.57L24.131 56.884"></path><path stroke="#000000" stroke-linecap="round" stroke-linejoin="round" stroke-width=".75" d="M28.177 53.635L20.863 52.838"></path><path stroke="#000000" stroke-linecap="round" stroke-linejoin="round" stroke-width=".75" d="M106.925 69.5C103.943 73.9502 101.572 78.7811 99.877 83.863L86.92 83.577C86.312 78.713 87.452 69.195 87.452 69.195"></path><path stroke="#000000" stroke-linecap="round" stroke-linejoin="round" stroke-width=".75" d="M87.338 86.882L88.06 94.482L92.581 97.635L97.369 94.406L99.06 87.053L87.338 86.882Z"></path><path stroke="#000000" stroke-linecap="round" stroke-linejoin="round" stroke-width=".75" d="M95.469 67.827H100.56"></path><path stroke="#000000" stroke-linecap="round" stroke-linejoin="round" stroke-width=".75" d="M119.236 122.428L110.706 129.514L107.852 127.003"></path><path stroke="#000000" stroke-linecap="round" stroke-linejoin="round" stroke-width=".75" d="M104.854 89.105L103.011 95.451C103.011 95.451 114.2 111.235 101.511 118.151C98.494 119.796 94.196 120.914 88.511 120.685C83.0605 120.385 77.6912 119.23 72.6 117.261C76.7648 125.22 81.4552 132.893 86.64 140.229C85.2008 143.123 82.9588 145.541 80.182 147.194C77.6772 148.607 74.896 149.459 72.03 149.694C64.8709 139.32 58.3167 128.542 52.4 117.413C51.5221 115.777 51.0597 113.95 51.0535 112.094C51.0472 110.237 51.4974 108.407 52.3643 106.765C53.2311 105.123 54.4882 103.719 56.0249 102.677C57.5616 101.635 59.3309 100.987 61.177 100.789C70.809 99.761 81.923 99.573 90.377 101.017"></path><path stroke="#000000" stroke-linecap="round" stroke-linejoin="round" stroke-width=".75" d="M72.6 117.261C71.536 115.304 70.7 113.442 70.7 113.442"></path><path stroke="#000000" stroke-linecap="round" stroke-linejoin="round" stroke-width=".75" d="M83.386 120.167C85.3772 128.83 90.3966 136.497 97.54 141.787C99.4854 143.264 101.758 144.25 104.165 144.664C106.572 145.077 109.043 144.905 111.37 144.162C122.723 140.508 133.392 135 142.946 127.862C141.96 121.65 139.531 117.245 134.301 113.442C126.366 118.467 116.857 124.669 107.852 127.003C105.284 124.408 103.187 121.388 101.652 118.076"></path><path stroke="#000000" stroke-linecap="round" stroke-linejoin="round" stroke-width=".75" d="M99.421 119.1C94.5914 121.174 89.5347 122.672 84.355 123.565"></path><path stroke="#000000" stroke-linecap="round" stroke-linejoin="round" stroke-width=".75" d="M96.875 64.73C97.6027 64.7723 98.3323 64.7723 99.06 64.73L96.267 66.516"></path></g></g></svg>